<?xml version="1.0" encoding="UTF-8" standalone="no"?>
<!-- Created with Inkscape (http://www.inkscape.org/) -->

<svg
   version="1.1"
   id="svg1"
   width="689.77258"
   height="309.11246"
   viewBox="0 0 689.77259 309.11246"
   sodipodi:docname="sign_chain_example.pdf"
   xmlns:inkscape="http://www.inkscape.org/namespaces/inkscape"
   xmlns:sodipodi="http://sodipodi.sourceforge.net/DTD/sodipodi-0.dtd"
   xmlns="http://www.w3.org/2000/svg"
   xmlns:svg="http://www.w3.org/2000/svg">
  <defs
     id="defs1" />
  <sodipodi:namedview
     id="namedview1"
     pagecolor="#ffffff"
     bordercolor="#000000"
     borderopacity="0.25"
     inkscape:showpageshadow="2"
     inkscape:pageopacity="0.0"
     inkscape:pagecheckerboard="0"
     inkscape:deskcolor="#d1d1d1">
    <inkscape:page
       x="0"
       y="0"
       inkscape:label="1"
       id="page1"
       width="689.77258"
       height="309.11246"
       margin="0"
       bleed="0" />
  </sodipodi:namedview>
  <g
     id="g1"
     inkscape:groupmode="layer"
     inkscape:label="1"
     transform="translate(206.40182,92.534383)">
    <path
       id="path1"
       d="m -163.88189,216.36076 11.6655,-33.68897 11.66553,-29.7615 11.66557,-26.01283 11.6656,-22.4414 11.66553,-19.047498 11.665565,-15.833799 11.665534,-12.794467 11.665566,-9.935433 11.665533,-7.252166 11.6655,-4.747833 11.665599,-2.422234 11.665533,-0.273966 11.665567,1.698466 11.66553281,3.4906 11.66553319,5.106767 11.665566,6.542933 11.665533,7.8044 11.6656,8.884266 11.6655,9.789833 11.665566,10.516467 11.665533,11.064299 11.665566,11.434835 11.665533,11.62806 11.6655,11.64387 11.66553,11.4795 11.66557,11.13933 11.66553,10.6217 11.66557,9.92527 11.6655,9.05013 11.66553,7.99907 11.6656,6.76927 11.66553,5.36346 11.66557,3.77604 11.66553,2.01416 11.66557,0.0735 11.66553,-2.0459 11.66554,-4.3412 11.66556,-6.81684 11.66554,-9.46823 11.66556,-12.29853 11.66554,-15.30604 11.66556,-18.491 11.66553,-21.8546 11.66557,-25.395761 11.66557,-29.114133 11.66556,-33.011266 11.6655,-37.085832 11.66554,-41.337632 11.66556,-45.768266"
       style="fill:none;stroke:#000000;stroke-width:1.32833;stroke-linecap:butt;stroke-linejoin:miter;stroke-miterlimit:10;stroke-dasharray:none;stroke-opacity:1" />
    <path
       id="path2"
       d="m -169.09389,150.09219 c 0.58594,0 1.17188,0 1.17188,-0.66406 0,-0.66406 -0.58594,-0.66406 -1.17188,-0.66406 h -17.96875 c -0.54687,0 -1.13281,0 -1.13281,0.66406 0,0.66406 0.58594,0.66406 1.13281,0.66406 z m 0,0"
       style="fill:#ff0000;fill-opacity:1;fill-rule:nonzero;stroke:none;stroke-width:3.33333"
       aria-label="−" />
    <path
       id="path3"
       d="m -206.40183,121.09719 h 80.41027"
       style="fill:none;stroke:#ff0000;stroke-width:2.6567;stroke-linecap:butt;stroke-linejoin:miter;stroke-miterlimit:10;stroke-dasharray:none;stroke-opacity:1" />
    <path
       id="path4"
       d="m -16.740372,93.392977 h 9.2578126 c 0.46875,0 1.09375,0 1.09375,-0.664062 0,-0.664063 -0.625,-0.664063 -1.09375,-0.664063 h -9.2578126 v -9.296875 c 0,-0.429687 0,-1.09375 -0.664062,-1.09375 -0.664063,0 -0.664063,0.664063 -0.664063,1.09375 v 9.296875 h -9.296874 c -0.46875,0 -1.09375,0 -1.09375,0.664063 0,0.664062 0.625,0.664062 1.09375,0.664062 h 9.296874 v 9.335933 c 0,0.42969 0,1.09375 0.664063,1.09375 0.664062,0 0.664062,-0.66406 0.664062,-1.09375 z m 0,0"
       style="fill:#0000ff;fill-opacity:1;fill-rule:nonzero;stroke:none;stroke-width:3.33333"
       aria-label="+" />
    <path
       id="path5"
       d="M -125.99156,121.09719 H 105.4133"
       style="fill:none;stroke:#0000ff;stroke-width:2.6567;stroke-linecap:butt;stroke-linejoin:miter;stroke-miterlimit:10;stroke-dasharray:none;stroke-opacity:1" />
    <path
       id="path6"
       d="m 237.20494,150.09219 c 0.58594,0 1.17188,0 1.17188,-0.66406 0,-0.66406 -0.58594,-0.66406 -1.17188,-0.66406 h -17.96875 c -0.54687,0 -1.13281,0 -1.13281,0.66406 0,0.66406 0.58594,0.66406 1.13281,0.66406 z m 0,0"
       style="fill:#ff0000;fill-opacity:1;fill-rule:nonzero;stroke:none;stroke-width:3.33333"
       aria-label="−" />
    <path
       id="path7"
       d="M 105.4133,121.09719 H 336.81816"
       style="fill:none;stroke:#ff0000;stroke-width:2.6567;stroke-linecap:butt;stroke-linejoin:miter;stroke-miterlimit:10;stroke-dasharray:none;stroke-opacity:1" />
    <path
       id="path8"
       d="m 408.45495,93.392977 h 9.25781 c 0.46875,0 1.09375,0 1.09375,-0.664062 0,-0.664063 -0.625,-0.664063 -1.09375,-0.664063 h -9.25781 v -9.296875 c 0,-0.429687 0,-1.09375 -0.66406,-1.09375 -0.66407,0 -0.66407,0.664063 -0.66407,1.09375 v 9.296875 h -9.29687 c -0.46875,0 -1.09375,0 -1.09375,0.664063 0,0.664062 0.625,0.664062 1.09375,0.664062 h 9.29687 v 9.335933 c 0,0.42969 0,1.09375 0.66407,1.09375 0.66406,0 0.66406,-0.66406 0.66406,-1.09375 z m 0,0"
       style="fill:#0000ff;fill-opacity:1;fill-rule:nonzero;stroke:none;stroke-width:3.33333"
       aria-label="+" />
    <path
       id="path9"
       d="m 336.81816,121.09719 h 146.5526"
       style="fill:none;stroke:#0000ff;stroke-width:2.6567;stroke-linecap:butt;stroke-linejoin:miter;stroke-miterlimit:10;stroke-dasharray:none;stroke-opacity:1" />
    <path
       id="path10"
       d="m -121.26689,121.09719 c 0,-2.6094 -2.11527,-4.72466 -4.72467,-4.72466 -2.60947,0 -4.72473,2.11526 -4.72473,4.72466 0,2.6094 2.11526,4.72467 4.72473,4.72467 2.6094,0 4.72467,-2.11527 4.72467,-4.72467 z"
       style="fill:#000000;fill-opacity:1;fill-rule:nonzero;stroke:#000000;stroke-width:1.32833;stroke-linecap:butt;stroke-linejoin:miter;stroke-miterlimit:10;stroke-dasharray:none;stroke-opacity:1" />
    <path
       id="path11"
       d="m 110.13797,121.09719 c 0,-2.6094 -2.11527,-4.72466 -4.72467,-4.72466 -2.6094,0 -4.72467,2.11526 -4.72467,4.72466 0,2.6094 2.11527,4.72467 4.72467,4.72467 2.6094,0 4.72467,-2.11527 4.72467,-4.72467 z"
       style="fill:#000000;fill-opacity:1;fill-rule:nonzero;stroke:#000000;stroke-width:1.32833;stroke-linecap:butt;stroke-linejoin:miter;stroke-miterlimit:10;stroke-dasharray:none;stroke-opacity:1" />
    <path
       id="path12"
       d="m 341.54289,121.09719 c 0,-2.6094 -2.11526,-4.72466 -4.72473,-4.72466 -2.6094,0 -4.72467,2.11526 -4.72467,4.72466 0,2.6094 2.11527,4.72467 4.72467,4.72467 2.60947,0 4.72473,-2.11527 4.72473,-4.72467 z"
       style="fill:#000000;fill-opacity:1;fill-rule:nonzero;stroke:#000000;stroke-width:1.32833;stroke-linecap:butt;stroke-linejoin:miter;stroke-miterlimit:10;stroke-dasharray:none;stroke-opacity:1" />
    <path
       id="path13"
       d="m 180.5155,8.3539145 c 0.58593,0 1.17187,0 1.17187,-0.6640623 0,-0.6640627 -0.58594,-0.6640627 -1.17187,-0.6640627 h -17.96875 c -0.54688,0 -1.13282,0 -1.13282,0.6640627 0,0.6640623 0.58594,0.6640623 1.13282,0.6640623 z m 0,0"
       style="fill:#ff0000;fill-opacity:1;fill-rule:nonzero;stroke:none;stroke-width:3.33333"
       aria-label="−" />
    <path
       id="path14"
       d="M -206.40183,-20.636802 H 388.88136"
       style="fill:none;stroke:#ff0000;stroke-width:2.6567;stroke-linecap:butt;stroke-linejoin:miter;stroke-miterlimit:10;stroke-dasharray:none;stroke-opacity:1" />
    <path
       id="path15"
       d="m 436.80454,-48.33554 h 9.25781 c 0.46875,0 1.09375,0 1.09375,-0.664063 0,-0.664062 -0.625,-0.664062 -1.09375,-0.664062 h -9.25781 v -9.296875 c 0,-0.429688 0,-1.09375 -0.66406,-1.09375 -0.66406,0 -0.66406,0.664062 -0.66406,1.09375 v 9.296875 h -9.29688 c -0.46875,0 -1.09375,0 -1.09375,0.664062 0,0.664063 0.625,0.664063 1.09375,0.664063 h 9.29688 v 9.335937 c 0,0.429688 0,1.09375 0.66406,1.09375 0.66406,0 0.66406,-0.664062 0.66406,-1.09375 z m 0,0"
       style="fill:#0000ff;fill-opacity:1;fill-rule:nonzero;stroke:none;stroke-width:3.33333"
       aria-label="+" />
    <path
       id="path16"
       d="m 388.88136,-20.636802 h 94.4894"
       style="fill:none;stroke:#0000ff;stroke-width:2.6567;stroke-linecap:butt;stroke-linejoin:miter;stroke-miterlimit:10;stroke-dasharray:none;stroke-opacity:1" />
    <path
       id="path17"
       d="m 393.60609,-20.636802 c 0,-2.6094 -2.11533,-4.724733 -4.72473,-4.724733 -2.6094,0 -4.72473,2.115333 -4.72473,4.724733 0,2.6094 2.11533,4.724734 4.72473,4.724734 2.6094,0 4.72473,-2.115334 4.72473,-4.724734 z"
       style="fill:#000000;fill-opacity:1;fill-rule:nonzero;stroke:#000000;stroke-width:1.32833;stroke-linecap:butt;stroke-linejoin:miter;stroke-miterlimit:10;stroke-dasharray:none;stroke-opacity:1" />
  </g>
</svg>
