<?xml version="1.0" encoding="UTF-8" standalone="no"?>
<!-- Created with Inkscape (http://www.inkscape.org/) -->

<svg
   version="1.1"
   id="svg1"
   width="5.9055839in"
   height="2.4331517in"
   viewBox="0 0 566.93605 233.58256"
   sodipodi:docname="viete_example.pdf"
   xmlns:inkscape="http://www.inkscape.org/namespaces/inkscape"
   xmlns:sodipodi="http://sodipodi.sourceforge.net/DTD/sodipodi-0.dtd"
   xmlns="http://www.w3.org/2000/svg"
   xmlns:svg="http://www.w3.org/2000/svg">
  <defs
     id="defs1" />
  <sodipodi:namedview
     id="namedview1"
     pagecolor="#ffffff"
     bordercolor="#000000"
     borderopacity="0.25"
     inkscape:showpageshadow="2"
     inkscape:pageopacity="0.0"
     inkscape:pagecheckerboard="0"
     inkscape:deskcolor="#d1d1d1"
     inkscape:document-units="in">
    <inkscape:page
       x="0"
       y="0"
       inkscape:label="1"
       id="page1"
       width="566.93604"
       height="233.58257"
       margin="0"
       bleed="0" />
  </sodipodi:namedview>
  <g
     id="g1"
     inkscape:groupmode="layer"
     inkscape:label="1"
     transform="translate(94.226722,34.504646)">
    <path
       id="path1"
       d="M 19.160513,199.07792 V -26.779995"
       style="fill:none;stroke:#808080;stroke-width:0.797;stroke-linecap:butt;stroke-linejoin:miter;stroke-miterlimit:10;stroke-dasharray:none;stroke-opacity:1" />
    <path
       id="path2"
       d="m 15.972494,-24.388978 c 1.1955,-0.19928 2.9888,-2.39102 3.18802,-2.98874 0.19922,0.59772 1.99252,2.78946 3.18802,2.98874"
       style="fill:none;stroke:#808080;stroke-width:0.63758;stroke-linecap:round;stroke-linejoin:round;stroke-miterlimit:10;stroke-dasharray:none;stroke-opacity:1" />
    <path
       id="path3"
       d="M -94.226724,85.690682 H 131.63119"
       style="fill:none;stroke:#808080;stroke-width:0.797;stroke-linecap:butt;stroke-linejoin:miter;stroke-miterlimit:10;stroke-dasharray:none;stroke-opacity:1" />
    <path
       id="path4"
       d="m 129.24017,82.502662 c 0.19928,1.1955 2.39102,2.9888 2.98874,3.18802 -0.59772,0.19922 -2.78946,1.99252 -2.98874,3.18802"
       style="fill:none;stroke:#808080;stroke-width:0.63758;stroke-linecap:round;stroke-linejoin:round;stroke-miterlimit:10;stroke-dasharray:none;stroke-opacity:1" />
    <path
       id="path5"
       d="m 113.9028,68.462151 v -5.15625 c 0,-0.46875 0,-0.703125 0.44531,-0.773438 0.21094,-0.02344 0.77344,-0.02344 1.17187,-0.02344 1.80469,0 4.03125,0.07031 4.03125,2.953125 0,1.382813 -0.46875,3 -3.42187,3 z m 4.21875,0.257812 c 1.92187,-0.46875 3.49218,-1.6875 3.49218,-3.257812 0,-1.898438 -2.27343,-3.585938 -5.20312,-3.585938 h -6.25781 v 0.632813 h 0.46875 c 1.54687,0 1.57031,0.210937 1.57031,0.9375 v 10.5 c 0,0.703125 -0.0234,0.9375 -1.57031,0.9375 h -0.46875 v 0.609375 c 0.70312,-0.07031 2.13281,-0.07031 2.90625,-0.07031 0.77343,0 2.17968,0 2.90625,0.07031 v -0.609375 h -0.46875 c -1.54688,0 -1.59375,-0.234375 -1.59375,-0.9375 v -5.039063 h 2.29687 c 0.32813,0 1.14844,0 1.85156,0.679688 0.77344,0.703125 0.77344,1.3125 0.77344,2.648437 0,1.3125 0,2.109375 0.79688,2.859375 0.82031,0.726563 1.92187,0.84375 2.50781,0.84375 1.57031,0 1.89844,-1.640625 1.89844,-2.203125 0,-0.117187 0,-0.328125 -0.25782,-0.328125 -0.21093,0 -0.21093,0.164063 -0.23437,0.304688 -0.11719,1.429687 -0.82031,1.78125 -1.3125,1.78125 -0.98438,0 -1.14844,-1.007813 -1.40625,-2.859375 l -0.28125,-1.59375 c -0.35156,-1.289063 -1.3125,-1.945313 -2.41406,-2.320313 z m 8.2207,1.757813 c 0.11719,-2.976563 1.80469,-3.46875 2.48437,-3.46875 2.03907,0 2.25,2.695312 2.25,3.46875 z m -0.0234,0.421875 h 5.57813 c 0.42187,0 0.49218,0 0.49218,-0.421875 0,-1.96875 -1.07812,-3.914063 -3.5625,-3.914063 -2.32031,0 -4.14843,2.0625 -4.14843,4.546875 0,2.671875 2.08593,4.59375 4.38281,4.59375 2.4375,0 3.32812,-2.203125 3.32812,-2.578125 0,-0.210937 -0.16406,-0.234375 -0.25781,-0.234375 -0.1875,0 -0.23437,0.117188 -0.25781,0.28125 -0.70313,2.039063 -2.50781,2.039063 -2.69531,2.039063 -1.00782,0 -1.80469,-0.585938 -2.25,-1.335938 -0.60938,-0.960937 -0.60938,-2.273437 -0.60938,-2.976562 z m 0,0"
       style="fill:#808080;fill-opacity:1;fill-rule:nonzero;stroke:none;stroke-width:2"
       aria-label="Re" />
    <path
       id="path6"
       d="m 28.748494,-21.596442 c 0,-0.726563 0.07031,-0.9375 1.640625,-0.9375 h 0.515625 v -0.632813 c -0.703125,0.07031 -2.273438,0.07031 -3.023438,0.07031 -0.773437,0 -2.34375,0 -3.046875,-0.07031 v 0.632813 h 0.515625 c 1.570313,0 1.640625,0.210937 1.640625,0.9375 v 10.499999 c 0,0.703125 -0.07031,0.9375 -1.640625,0.9375 h -0.515625 v 0.6093754 c 0.703125,-0.070312 2.273438,-0.070312 3.023438,-0.070312 0.773437,0 2.34375,0 3.046875,0.070312 v -0.6093754 h -0.515625 c -1.570313,0 -1.640625,-0.234375 -1.640625,-0.9375 z m 4.921875,5.203125 v 5.320312 c 0,0.914062 -0.234375,0.914062 -1.570313,0.914062 v 0.6093754 c 0.703125,-0.023437 1.710938,-0.070312 2.25,-0.070312 0.515625,0 1.570312,0.046875 2.226562,0.070312 v -0.6093754 c -1.3125,0 -1.546875,0 -1.546875,-0.914062 v -3.65625 c 0,-2.0625 1.429688,-3.1875 2.695313,-3.1875 1.242187,0 1.476562,1.078125 1.476562,2.203125 v 4.640625 c 0,0.914062 -0.234375,0.914062 -1.546875,0.914062 v 0.6093754 c 0.679688,-0.023437 1.710938,-0.070312 2.25,-0.070312 0.515625,0 1.546875,0.046875 2.226563,0.070312 v -0.6093754 c -1.335938,0 -1.570313,0 -1.570313,-0.914062 v -3.65625 c 0,-2.0625 1.429688,-3.1875 2.695313,-3.1875 1.265625,0 1.476563,1.078125 1.476563,2.203125 v 4.640625 c 0,0.914062 -0.210938,0.914062 -1.546876,0.914062 v 0.6093754 c 0.703125,-0.023437 1.710938,-0.070312 2.25,-0.070312 0.515626,0 1.546876,0.046875 2.226564,0.070312 v -0.6093754 c -1.03125,0 -1.523438,0 -1.546876,-0.609375 v -3.796874 c 0,-1.710938 0,-2.34375 -0.632812,-3.046875 -0.257812,-0.351563 -0.9375,-0.75 -2.085938,-0.75 -1.664063,0 -2.554688,1.195312 -2.882813,1.96875 -0.28125,-1.734375 -1.757812,-1.96875 -2.648437,-1.96875 -1.453125,0 -2.390625,0.867187 -2.953125,2.109375 v -2.109375 l -2.8125,0.234375 v 0.609375 c 1.40625,0 1.570313,0.140624 1.570313,1.125 z m 0,0"
       style="fill:#808080;fill-opacity:1;fill-rule:nonzero;stroke:none;stroke-width:2"
       aria-label="Im" />
    <path
       id="path7"
       d="M 359.32218,199.07792 V -26.779995"
       style="fill:none;stroke:#808080;stroke-width:0.797;stroke-linecap:butt;stroke-linejoin:miter;stroke-miterlimit:10;stroke-dasharray:none;stroke-opacity:1" />
    <path
       id="path8"
       d="m 356.13417,-24.388978 c 1.1955,-0.19928 2.9888,-2.39102 3.18802,-2.98874 0.19922,0.59772 1.99252,2.78946 3.18802,2.98874"
       style="fill:none;stroke:#808080;stroke-width:0.63758;stroke-linecap:round;stroke-linejoin:round;stroke-miterlimit:10;stroke-dasharray:none;stroke-opacity:1" />
    <path
       id="path9"
       d="M 245.93495,85.690682 H 471.79286"
       style="fill:none;stroke:#808080;stroke-width:0.797;stroke-linecap:butt;stroke-linejoin:miter;stroke-miterlimit:10;stroke-dasharray:none;stroke-opacity:1" />
    <path
       id="path10"
       d="m 469.40185,82.502662 c 0.19928,1.1955 2.39102,2.9888 2.98874,3.18802 -0.59772,0.19922 -2.78946,1.99252 -2.98874,3.18802"
       style="fill:none;stroke:#808080;stroke-width:0.63758;stroke-linecap:round;stroke-linejoin:round;stroke-miterlimit:10;stroke-dasharray:none;stroke-opacity:1" />
    <path
       id="path11"
       d="m 454.06295,68.462151 v -5.15625 c 0,-0.46875 0,-0.703125 0.44531,-0.773438 0.21094,-0.02344 0.77344,-0.02344 1.17188,-0.02344 1.80469,0 4.03125,0.07031 4.03125,2.953125 0,1.382813 -0.46875,3 -3.42188,3 z m 4.21875,0.257812 c 1.92188,-0.46875 3.49219,-1.6875 3.49219,-3.257812 0,-1.898438 -2.27344,-3.585938 -5.20313,-3.585938 h -6.25781 v 0.632813 h 0.46875 c 1.54688,0 1.57031,0.210937 1.57031,0.9375 v 10.5 c 0,0.703125 -0.0234,0.9375 -1.57031,0.9375 h -0.46875 v 0.609375 c 0.70313,-0.07031 2.13281,-0.07031 2.90625,-0.07031 0.77344,0 2.17969,0 2.90625,0.07031 v -0.609375 h -0.46875 c -1.54687,0 -1.59375,-0.234375 -1.59375,-0.9375 v -5.039063 h 2.29688 c 0.32812,0 1.14843,0 1.85156,0.679688 0.77344,0.703125 0.77344,1.3125 0.77344,2.648437 0,1.3125 0,2.109375 0.79687,2.859375 0.82031,0.726563 1.92188,0.84375 2.50781,0.84375 1.57032,0 1.89844,-1.640625 1.89844,-2.203125 0,-0.117187 0,-0.328125 -0.25781,-0.328125 -0.21094,0 -0.21094,0.164063 -0.23438,0.304688 -0.11718,1.429687 -0.82031,1.78125 -1.3125,1.78125 -0.98437,0 -1.14843,-1.007813 -1.40625,-2.859375 l -0.28125,-1.59375 c -0.35156,-1.289063 -1.3125,-1.945313 -2.41406,-2.320313 z m 8.22071,1.757813 c 0.11718,-2.976563 1.80468,-3.46875 2.48437,-3.46875 2.03906,0 2.25,2.695312 2.25,3.46875 z m -0.0234,0.421875 h 5.57812 c 0.42188,0 0.49219,0 0.49219,-0.421875 0,-1.96875 -1.07813,-3.914063 -3.5625,-3.914063 -2.32031,0 -4.14844,2.0625 -4.14844,4.546875 0,2.671875 2.08594,4.59375 4.38281,4.59375 2.4375,0 3.32813,-2.203125 3.32813,-2.578125 0,-0.210937 -0.16406,-0.234375 -0.25781,-0.234375 -0.1875,0 -0.23438,0.117188 -0.25782,0.28125 -0.70312,2.039063 -2.50781,2.039063 -2.69531,2.039063 -1.00781,0 -1.80469,-0.585938 -2.25,-1.335938 -0.60937,-0.960937 -0.60937,-2.273437 -0.60937,-2.976562 z m 0,0"
       style="fill:#808080;fill-opacity:1;fill-rule:nonzero;stroke:none;stroke-width:2"
       aria-label="Re" />
    <path
       id="path12"
       d="m 368.90865,-21.596442 c 0,-0.726563 0.0703,-0.9375 1.64062,-0.9375 h 0.51563 v -0.632813 c -0.70313,0.07031 -2.27344,0.07031 -3.02344,0.07031 -0.77344,0 -2.34375,0 -3.04688,-0.07031 v 0.632813 h 0.51563 c 1.57031,0 1.64062,0.210937 1.64062,0.9375 v 10.499999 c 0,0.703125 -0.0703,0.9375 -1.64062,0.9375 h -0.51563 v 0.6093754 c 0.70313,-0.070312 2.27344,-0.070312 3.02344,-0.070312 0.77344,0 2.34375,0 3.04688,0.070312 v -0.6093754 h -0.51563 c -1.57031,0 -1.64062,-0.234375 -1.64062,-0.9375 z m 4.91601,5.203125 v 5.320312 c 0,0.914062 -0.23437,0.914062 -1.57031,0.914062 v 0.6093754 c 0.70312,-0.023437 1.71094,-0.070312 2.25,-0.070312 0.51562,0 1.57031,0.046875 2.22656,0.070312 v -0.6093754 c -1.3125,0 -1.54687,0 -1.54687,-0.914062 v -3.65625 c 0,-2.0625 1.42968,-3.1875 2.69531,-3.1875 1.24219,0 1.47656,1.078125 1.47656,2.203125 v 4.640625 c 0,0.914062 -0.23437,0.914062 -1.54687,0.914062 v 0.6093754 c 0.67968,-0.023437 1.71093,-0.070312 2.25,-0.070312 0.51562,0 1.54687,0.046875 2.22656,0.070312 v -0.6093754 c -1.33594,0 -1.57031,0 -1.57031,-0.914062 v -3.65625 c 0,-2.0625 1.42968,-3.1875 2.69531,-3.1875 1.26562,0 1.47656,1.078125 1.47656,2.203125 v 4.640625 c 0,0.914062 -0.21094,0.914062 -1.54687,0.914062 v 0.6093754 c 0.70312,-0.023437 1.71093,-0.070312 2.25,-0.070312 0.51562,0 1.54687,0.046875 2.22656,0.070312 v -0.6093754 c -1.03125,0 -1.52344,0 -1.54688,-0.609375 v -3.796874 c 0,-1.710938 0,-2.34375 -0.63281,-3.046875 -0.25781,-0.351563 -0.9375,-0.75 -2.08594,-0.75 -1.66406,0 -2.55468,1.195312 -2.88281,1.96875 -0.28125,-1.734375 -1.75781,-1.96875 -2.64844,-1.96875 -1.45312,0 -2.39062,0.867187 -2.95312,2.109375 v -2.109375 l -2.8125,0.234375 v 0.609375 c 1.40625,0 1.57031,0.140624 1.57031,1.125 z m 0,0"
       style="fill:#808080;fill-opacity:1;fill-rule:nonzero;stroke:none;stroke-width:2"
       aria-label="Im" />
    <path
       id="path13"
       d="M 132.54775,0.65028401 C 167.62483,-19.601115 210.85787,-19.601115 244.70979,-0.05703597"
       style="fill:none;stroke:#000000;stroke-width:1.59402;stroke-linecap:butt;stroke-linejoin:miter;stroke-miterlimit:10;stroke-dasharray:none;stroke-opacity:1" />
    <path
       id="path14"
       d="m 244.09006,-5.2002378 c -0.55274,1.4754229 0.74919,4.91888309 1.29262,5.53168414 -0.80242,-0.16420787 -4.43549,0.43008627 -5.43686,1.64649956"
       style="fill:none;stroke:#000000;stroke-width:1.27517;stroke-linecap:round;stroke-linejoin:round;stroke-miterlimit:10;stroke-dasharray:none;stroke-opacity:1" />
    <path
       id="path15"
       d="m 187.70747,-22.598396 c 0.28125,-2.460938 0.28125,-4.242188 0.28125,-4.546875 0,-1.40625 0,-7.359375 -3.60937,-7.359375 -0.67969,0 -1.38281,0.5625 -1.38281,0.84375 0,0.140624 0.0937,0.140624 0.375,0.164062 2.90625,0.257812 3.14062,4.828125 3.14062,7.078125 0,2.015625 -0.25781,4.40625 -0.49219,5.742187 -0.0469,0.234375 -0.0469,0.257813 -0.0469,0.351563 0,0.09375 0,0.328125 0.14062,0.328125 0.23438,0 5.03907,-3.679688 7.57032,-7.523438 1.03125,-1.546875 1.78125,-3.328125 1.78125,-4.664062 0,-1.6875 -1.125,-2.320313 -1.92188,-2.320313 -0.58594,0 -0.86719,1.265625 -0.86719,1.523438 0,0.304687 0.0937,0.304687 0.32813,0.328125 1.33594,0.140624 1.59375,1.195312 1.59375,1.6875 0,1.617187 -3.46875,5.695312 -6.89063,8.367188 z m 0,0"
       style="fill:#000000;fill-opacity:1;fill-rule:nonzero;stroke:none;stroke-width:2"
       aria-label="V" />
    <path
       id="path16"
       d="m 24.830213,11.988844 c 0,-3.1313202 -2.53842,-5.6697201 -5.6697,-5.6697201 -3.13132,0 -5.6697,2.5383999 -5.6697,5.6697201 0,3.13128 2.53838,5.66968 5.6697,5.66968 3.13128,0 5.6697,-2.5384 5.6697,-5.66968 z"
       style="fill:#000000;fill-opacity:1;fill-rule:nonzero;stroke:#000000;stroke-width:0.797;stroke-linecap:butt;stroke-linejoin:miter;stroke-miterlimit:10;stroke-dasharray:none;stroke-opacity:1" />
    <path
       id="path17"
       d="m 24.830213,159.39252 c 0,-3.13128 -2.53842,-5.66968 -5.6697,-5.66968 -3.13132,0 -5.6697,2.5384 -5.6697,5.66968 0,3.13132 2.53838,5.66972 5.6697,5.66972 3.13128,0 5.6697,-2.5384 5.6697,-5.66972 z"
       style="fill:#000000;fill-opacity:1;fill-rule:nonzero;stroke:#000000;stroke-width:0.797;stroke-linecap:butt;stroke-linejoin:miter;stroke-miterlimit:10;stroke-dasharray:none;stroke-opacity:1" />
    <path
       id="path18"
       d="m 364.99188,85.690682 c 0,-3.13128 -2.53838,-5.66968 -5.6697,-5.66968 -3.13128,0 -5.6697,2.5384 -5.6697,5.66968 0,3.13128 2.53842,5.66968 5.6697,5.66968 3.13132,0 5.6697,-2.5384 5.6697,-5.66968 z"
       style="fill:#000000;fill-opacity:1;fill-rule:nonzero;stroke:#000000;stroke-width:0.797;stroke-linecap:butt;stroke-linejoin:miter;stroke-miterlimit:10;stroke-dasharray:none;stroke-opacity:1" />
    <path
       id="path19"
       d="m 438.69376,85.690682 c 0,-3.13128 -2.53842,-5.66968 -5.6697,-5.66968 -3.13132,0 -5.66972,2.5384 -5.66972,5.66968 0,3.13128 2.5384,5.66968 5.66972,5.66968 3.13128,0 5.6697,-2.5384 5.6697,-5.66968 z"
       style="fill:#000000;fill-opacity:1;fill-rule:nonzero;stroke:#000000;stroke-width:0.797;stroke-linecap:butt;stroke-linejoin:miter;stroke-miterlimit:10;stroke-dasharray:none;stroke-opacity:1" />
  </g>
</svg>
