<?xml version="1.0" encoding="UTF-8" standalone="no"?>
<!-- Created with Inkscape (http://www.inkscape.org/) -->

<svg
   version="1.1"
   id="svg1"
   width="4.8142824in"
   height="1.2310781in"
   viewBox="0 0 462.17111 118.1835"
   sodipodi:docname="interior.pdf"
   xmlns:inkscape="http://www.inkscape.org/namespaces/inkscape"
   xmlns:sodipodi="http://sodipodi.sourceforge.net/DTD/sodipodi-0.dtd"
   xmlns="http://www.w3.org/2000/svg"
   xmlns:svg="http://www.w3.org/2000/svg">
  <defs
     id="defs1" />
  <sodipodi:namedview
     id="namedview1"
     pagecolor="#ffffff"
     bordercolor="#000000"
     borderopacity="0.25"
     inkscape:showpageshadow="2"
     inkscape:pageopacity="0.0"
     inkscape:pagecheckerboard="0"
     inkscape:deskcolor="#d1d1d1"
     inkscape:document-units="in">
    <inkscape:page
       x="0"
       y="0"
       inkscape:label="1"
       id="page1"
       width="462.17111"
       height="118.1835"
       margin="0"
       bleed="0" />
  </sodipodi:namedview>
  <g
     id="g1"
     inkscape:groupmode="layer"
     inkscape:label="1"
     transform="translate(115.54424,29.547427)">
    <path
       id="path1"
       d="m -111.23312,84.325 9.25518,-9.069413 9.255169,-8.686533 9.255146,-8.310507 9.255173,-7.934453 9.255173,-7.555013 9.25512,-7.176666 9.255173,-6.801814 9.255173,-6.421119 9.255173,-6.044027 9.255147,-5.667973 9.2551461,-5.28848 9.25514646,-4.91015991 9.25517314,-4.53535989 9.2551733,-4.1546399 9.255173,-3.7774933 9.255146,-3.401493 9.255147,-3.022027 9.255173,-2.6448 9.255146,-2.267653 9.255173,-1.889307 9.255173,-1.512186 9.25512,-1.133787 9.255173,-0.756693 9.25517,-0.378294 9.25507,-0.0012 9.25517,0.377147 9.25515,0.754373 9.25515,1.131493 9.25517,1.510987 9.25517,1.887067 9.25518,2.265333 9.25514,2.64368 9.25515,3.020853 9.25514,3.398053 9.25515,3.7763203 9.25515,4.1546666 9.2552,4.53066652 9.25512,4.91015988 9.25514,5.2873867 9.25518,5.66448 9.25517,6.042853 9.25517,6.420026 9.25515,6.798347 9.25515,7.175493 9.25517,7.553867 9.25515,7.931013 9.25517,8.309359 9.25517,8.68648 9.25512,9.064853"
       style="fill:none;stroke:#000000;stroke-width:1.06267;stroke-linecap:butt;stroke-linejoin:miter;stroke-miterlimit:10;stroke-dasharray:none;stroke-opacity:1" />
    <path
       id="path2"
       d="m -111.23312,84.325 h 453.5489"
       style="fill:none;stroke:#0000ff;stroke-width:2.12536;stroke-linecap:butt;stroke-linejoin:miter;stroke-miterlimit:10;stroke-dasharray:none;stroke-opacity:1" />
    <path
       id="path3"
       d="m -107.45333,84.325 c 0,-2.08752 -1.69227,-3.779733 -3.77979,-3.779733 -2.08752,0 -3.77978,1.692213 -3.77978,3.779733 0,2.08752 1.69226,3.779733 3.77978,3.779733 2.08752,0 3.77979,-1.692213 3.77979,-3.779733 z"
       style="fill:#000000;fill-opacity:1;fill-rule:nonzero;stroke:#000000;stroke-width:1.06267;stroke-linecap:butt;stroke-linejoin:miter;stroke-miterlimit:10;stroke-dasharray:none;stroke-opacity:1" />
    <path
       id="path4"
       d="m 346.09556,84.325 c 0,-2.08752 -1.69226,-3.779733 -3.77978,-3.779733 -2.08752,0 -3.77979,1.692213 -3.77979,3.779733 0,2.08752 1.69227,3.779733 3.77979,3.779733 2.08752,0 3.77978,-1.692213 3.77978,-3.779733 z"
       style="fill:#000000;fill-opacity:1;fill-rule:nonzero;stroke:#000000;stroke-width:1.06267;stroke-linecap:butt;stroke-linejoin:miter;stroke-miterlimit:10;stroke-dasharray:none;stroke-opacity:1" />
    <path
       id="path5"
       d="m -111.23312,23.851615 h 453.5489"
       style="fill:none;stroke:#000000;stroke-width:2.12536;stroke-linecap:butt;stroke-linejoin:miter;stroke-miterlimit:10;stroke-dasharray:7.97021, 7.97021;stroke-dashoffset:0;stroke-opacity:1" />
    <path
       id="path6"
       d="m -35.56552,23.851615 c 0,-2.08752 -1.692213,-3.779733 -3.779733,-3.779733 -2.087573,0 -3.779813,1.692213 -3.779813,3.779733 0,2.087573 1.69224,3.779786 3.779813,3.779786 2.08752,0 3.779733,-1.692213 3.779733,-3.779786 z"
       style="fill:#000000;fill-opacity:1;fill-rule:nonzero;stroke:#000000;stroke-width:1.06267;stroke-linecap:butt;stroke-linejoin:miter;stroke-miterlimit:10;stroke-dasharray:none;stroke-opacity:1" />
    <path
       id="path7"
       d="m 274.20773,23.851615 c 0,-2.08752 -1.69224,-3.779733 -3.77982,-3.779733 -2.08752,0 -3.77973,1.692213 -3.77973,3.779733 0,2.087573 1.69221,3.779786 3.77973,3.779786 2.08758,0 3.77982,-1.692213 3.77982,-3.779786 z"
       style="fill:#000000;fill-opacity:1;fill-rule:nonzero;stroke:#000000;stroke-width:1.06267;stroke-linecap:butt;stroke-linejoin:miter;stroke-miterlimit:10;stroke-dasharray:none;stroke-opacity:1" />
    <path
       id="path8"
       d="M 115.54133,84.325 V 25.073695"
       style="fill:none;stroke:#000000;stroke-width:1.06267;stroke-linecap:butt;stroke-linejoin:miter;stroke-miterlimit:10;stroke-dasharray:none;stroke-opacity:1" />
    <path
       id="path9"
       d="m 111.29064,28.261719 c 1.594,-0.265707 3.98506,-3.188027 4.25069,-3.984987 0.26563,0.79696 2.65669,3.71928 4.25069,3.984987"
       style="fill:none;stroke:#000000;stroke-width:0.850107;stroke-linecap:round;stroke-linejoin:round;stroke-miterlimit:10;stroke-dasharray:none;stroke-opacity:1" />
    <path
       id="path10"
       d="m 133.16961,53.807228 c 0.4375,0 0.90625,0 0.90625,-0.46875 0,-0.34375 -0.3125,-0.34375 -0.75,-0.34375 h -4.3125 c 0.625,-2.28125 2.125,-3.8125 4.53125,-3.8125 h 0.84375 c 0.4375,0 0.875,0 0.875,-0.4375 0,-0.375 -0.34375,-0.375 -0.8125,-0.375 h -0.9375 c -3.4375,0 -7,2.65625 -7,6.71875 0,2.90625 2,5 4.8125,5 1.71875,0 3.4375,-1.0625 3.4375,-1.34375 0,-0.09375 -0.0312,-0.375 -0.25,-0.375 -0.0625,0 -0.125,0 -0.34375,0.15625 -0.84375,0.53125 -1.8125,1 -2.78125,1 -1.5625,0 -2.875,-1.125 -2.875,-3.46875 0,-0.9375 0.21875,-1.9375 0.28125,-2.25 z m 0,0"
       style="fill:#000000;fill-opacity:1;fill-rule:nonzero;stroke:none;stroke-width:2.66667"
       aria-label="ϵ" />
  </g>
</svg>
