<?xml version="1.0" encoding="UTF-8" standalone="no"?>
<!-- Created with Inkscape (http://www.inkscape.org/) -->

<svg
   version="1.1"
   id="svg1"
   width="5.7043905in"
   height="2.8378863in"
   viewBox="0 0 547.6215 272.43707"
   sodipodi:docname="path_covering.pdf"
   xmlns:inkscape="http://www.inkscape.org/namespaces/inkscape"
   xmlns:sodipodi="http://sodipodi.sourceforge.net/DTD/sodipodi-0.dtd"
   xmlns="http://www.w3.org/2000/svg"
   xmlns:svg="http://www.w3.org/2000/svg">
  <defs
     id="defs1" />
  <sodipodi:namedview
     id="namedview1"
     pagecolor="#ffffff"
     bordercolor="#000000"
     borderopacity="0.25"
     inkscape:showpageshadow="2"
     inkscape:pageopacity="0.0"
     inkscape:pagecheckerboard="0"
     inkscape:deskcolor="#d1d1d1"
     inkscape:document-units="in">
    <inkscape:page
       x="6.9593415e-07"
       y="6.2384572e-07"
       inkscape:label="1"
       id="page1"
       width="547.62152"
       height="272.43707"
       margin="0"
       bleed="0" />
  </sodipodi:namedview>
  <g
     id="g1"
     inkscape:groupmode="layer"
     inkscape:label="1"
     transform="translate(102.91953,53.651815)">
    <path
       id="path1"
       d="m -70.828317,202.90402 c 0.20625,-0.79921 0.257813,-1.00546 1.985156,-1.00546 0.541406,0 0.696093,0 0.696093,-0.4125 0,-0.28359 -0.23203,-0.28359 -0.309375,-0.28359 -0.64453,0 -2.268749,0.0773 -2.887499,0.0773 -0.670312,0 -2.26875,-0.0773 -2.939062,-0.0773 -0.128907,0 -0.438282,0 -0.438282,0.43828 0,0.25781 0.20625,0.25781 0.61875,0.25781 0.928125,0 1.521094,0 1.521094,0.4125 0,0.10307 0,0.15469 -0.05156,0.36094 l -2.964844,11.80781 c -0.180468,0.79921 -0.257812,1.03125 -1.985156,1.03125 -0.489844,0 -0.696094,0 -0.696094,0.43828 0,0.23204 0.257813,0.23204 0.335157,0.23204 0.61875,0 2.217187,-0.0773 2.861718,-0.0773 0.670313,0 2.26875,0.0773 2.939063,0.0773 0.180468,0 0.438281,0 0.438281,-0.4125 0,-0.25782 -0.180468,-0.25782 -0.670312,-0.25782 -0.386719,0 -0.489844,0 -0.928125,-0.0516 -0.464063,-0.0516 -0.541407,-0.12891 -0.541407,-0.38673 0,-0.15468 0.02578,-0.33515 0.07734,-0.48984 z m 0,0"
       style="fill:#000000;fill-opacity:1;fill-rule:nonzero;stroke:none;stroke-width:2.2"
       aria-label="I" />
    <path
       id="path2"
       d="M -73.349292,158.80487 V -28.284052"
       style="fill:none;stroke:#000000;stroke-width:1.75342;stroke-linecap:butt;stroke-linejoin:miter;stroke-miterlimit:10;stroke-dasharray:none;stroke-opacity:1" />
    <path
       id="path3"
       d="m -67.112644,158.80487 c 0,-3.44441 -2.79224,-6.23665 -6.236648,-6.23665 -3.444408,0 -6.236648,2.79224 -6.236648,6.23665 0,3.44441 2.79224,6.23665 6.236648,6.23665 3.444408,0 6.236648,-2.79224 6.236648,-6.23665 z"
       style="fill:#000000;fill-opacity:1;fill-rule:nonzero;stroke:#000000;stroke-width:0.8767;stroke-linecap:butt;stroke-linejoin:miter;stroke-miterlimit:10;stroke-dasharray:none;stroke-opacity:1" />
    <path
       id="path4"
       d="m -67.112644,-28.284052 c 0,-3.444452 -2.79224,-6.23667 -6.236648,-6.23667 -3.444408,0 -6.236648,2.792218 -6.236648,6.23667 0,3.444408 2.79224,6.23667 6.236648,6.23667 3.444408,0 6.236648,-2.792262 6.236648,-6.23667 z"
       style="fill:#000000;fill-opacity:1;fill-rule:nonzero;stroke:#000000;stroke-width:0.8767;stroke-linecap:butt;stroke-linejoin:miter;stroke-miterlimit:10;stroke-dasharray:none;stroke-opacity:1" />
    <path
       id="path5"
       d="m -93.68984,158.85676 c 0,-1.75313 -0.103125,-3.50625 -0.876562,-5.13047 -1.00547,-2.11407 -2.810157,-2.44922 -3.7125,-2.44922 -1.314844,0 -2.939058,0.56719 -3.815628,2.6039 -0.72187,1.52109 -0.825,3.22266 -0.825,4.97579 0,1.65 0.10313,3.60937 0.97969,5.28516 0.95391,1.77889 2.552344,2.21718 3.635156,2.21718 1.185937,0 2.835937,-0.46406 3.815625,-2.55234 0.696094,-1.52109 0.799219,-3.22266 0.799219,-4.95 z m -4.614844,7.0125 c -0.850781,0 -2.165626,-0.54141 -2.552346,-2.65547 -0.23203,-1.31485 -0.23203,-3.32578 -0.23203,-4.61485 0,-1.41797 0,-2.86172 0.18047,-4.04765 0.4125,-2.60391 2.036718,-2.78437 2.603906,-2.78437 0.721875,0 2.165625,0.38671 2.578125,2.55234 0.20625,1.2375 0.20625,2.8875 0.20625,4.27968 0,1.65 0,3.11953 -0.232032,4.5375 -0.335156,2.0625 -1.572656,2.73282 -2.552343,2.73282 z m 0,0"
       style="fill:#000000;fill-opacity:1;fill-rule:nonzero;stroke:none;stroke-width:2.2"
       aria-label="0" />
    <path
       id="path6"
       d="m -97.324997,-35.243824 c 0,-0.515625 0,-0.567187 -0.515625,-0.567187 -1.340624,1.392187 -3.274218,1.392187 -3.970308,1.392187 v 0.696093 c 0.43828,0 1.72734,0 2.861715,-0.567187 v 11.34375 c 0,0.773437 -0.07734,1.057032 -2.036715,1.057032 h -0.6961 v 0.670312 c 0.77344,-0.07734 2.655472,-0.07734 3.532033,-0.07734 0.876563,0 2.784375,0 3.557813,0.07734 v -0.670312 h -0.696093 c -1.985157,0 -2.03672,-0.257813 -2.03672,-1.057032 z m 0,0"
       style="fill:#000000;fill-opacity:1;fill-rule:nonzero;stroke:none;stroke-width:2.2"
       aria-label="1" />
    <g
       id="g6"
       aria-label="˜&#10;X"
       transform="matrix(2.2,0,0,2.2,110.08452,213.24388)">
      <path
         id="path7"
         d="M 4.1487344,-6.5046172 3.9846719,-6.6569609 c 0,0.011719 -0.375,0.4804687 -0.8203125,0.4804687 -0.2226563,0 -0.46875,-0.1523437 -0.6445313,-0.2460937 -0.2695312,-0.1640625 -0.4453125,-0.234375 -0.6210937,-0.234375 -0.375,0 -0.5625,0.2226562 -1.06640627,0.7734375 l 0.15234375,0.1523437 c 0,-0.011719 0.37500002,-0.4804687 0.82031252,-0.4804687 0.2226562,0 0.4804687,0.1523437 0.6445312,0.2578125 0.2695313,0.1523437 0.4453125,0.2226562 0.6210938,0.2226562 0.375,0 0.5625,-0.2109375 1.078125,-0.7734375 z m 0,0"
         style="fill:#000000;fill-opacity:1;fill-rule:nonzero;stroke:none" />
      <path
         id="path8"
         d="M 1.9690469,-1.5710234 1.1370156,-3.5632109 c -0.035156,-0.070312 -0.046875,-0.1171875 -0.046875,-0.1289063 0,-0.058594 0.1640625,-0.2460937 0.5859375,-0.28125 0.09375,-0.011719 0.1992188,-0.023437 0.1992188,-0.1875 0,-0.1289062 -0.1171875,-0.1289062 -0.1523438,-0.1289062 -0.4101562,0 -0.83203122,0.035156 -1.25390622,0.035156 -0.24609375,0 -0.8671875,-0.035156 -1.11328125,-0.035156 -0.0585938,0 -0.1875,0 -0.1875,0.1992187 0,0.1171875 0.10546875,0.1171875 0.234375,0.1171875 0.597656245,0 0.65625,0.09375 0.75,0.3164063 L 1.3245156,-0.87961719 -0.77314062,1.3821016 -0.90204687,1.4875703 C -1.3942344,2.0149141 -1.8629844,2.1789766 -2.3668906,2.2141328 c -0.1289063,0 -0.2226563,0 -0.2226563,0.1992188 0,0 0,0.1054687 0.1289063,0.1054687 0.3046875,0 0.6328125,-0.035156 0.9375,-0.035156 0.3632812,0 0.76171873,0.035156 1.11328123,0.035156 0.0585938,0 0.17578125,0 0.17578125,-0.1992187 0,-0.1054688 -0.09375,-0.1054688 -0.1171875,-0.1054688 -0.0820313,-0.011719 -0.3984375,-0.035156 -0.3984375,-0.3164062 0,-0.1523438 0.15234375,-0.3164063 0.26953125,-0.4453125 L 0.53935938,0.37428906 1.4299844,-0.59836719 2.4377969,1.7805391 c 0.046875,0.1054687 0.046875,0.1171875 0.046875,0.140625 0,0.082031 -0.1875,0.2460937 -0.5742188,0.2929687 -0.1054687,0 -0.1992187,0.011719 -0.1992187,0.1875 0,0.1171875 0.1171875,0.1171875 0.1523437,0.1171875 0.28125,0 0.9726563,-0.035156 1.2539063,-0.035156 0.2460937,0 0.8554687,0.035156 1.1015625,0.035156 0.070312,0 0.1992187,0 0.1992187,-0.1875 0,-0.1171875 -0.1054687,-0.1171875 -0.1875,-0.1171875 C 3.5627969,2.2024141 3.5510781,2.1672578 3.3752969,1.7688203 2.9885781,0.84303906 2.3206094,-0.70383594 2.0862344,-1.3014922 c 0.6796875,-0.703125 1.734375,-1.8867187 2.0507812,-2.1679687 0.28125,-0.234375 0.6679688,-0.4804688 1.265625,-0.5039063 0.1289063,-0.011719 0.2109375,-0.011719 0.2109375,-0.1992187 0,-0.011719 0,-0.1171875 -0.1289062,-0.1171875 -0.2929688,0 -0.6210938,0.035156 -0.9375,0.035156 -0.3632813,0 -0.7382813,-0.035156 -1.1015625,-0.035156 -0.058594,0 -0.1875,0 -0.1875,0.1992187 0,0.070312 0.046875,0.1054688 0.1171875,0.1171875 0.09375,0.011719 0.3984375,0.023437 0.3984375,0.3046875 0,0.140625 -0.1054688,0.2695313 -0.1875,0.3632813 z m 0,0"
         style="fill:#000000;fill-opacity:1;fill-rule:nonzero;stroke:none" />
    </g>
    <path
       id="path9"
       d="m 194.81169,158.80487 c 0,-13.7768 -36.2966,-24.94481 -81.07206,-24.94481 -44.775414,0 -81.072068,11.16801 -81.072068,24.94481 0,13.7768 36.296654,24.94481 81.072068,24.94481 44.77546,0 81.07206,-11.16801 81.07206,-24.94481 z"
       style="fill:#ffffff;fill-opacity:1;fill-rule:nonzero;stroke:#000000;stroke-width:0.8767;stroke-linecap:butt;stroke-linejoin:miter;stroke-miterlimit:10;stroke-dasharray:6.57543, 6.57543;stroke-dashoffset:0;stroke-opacity:1" />
    <path
       id="path10"
       d="M 113.73963,158.80487 V 136.97746"
       style="fill:none;stroke:#000000;stroke-width:1.75342;stroke-linecap:butt;stroke-linejoin:miter;stroke-miterlimit:10;stroke-dasharray:none;stroke-opacity:1" />
    <path
       id="path11"
       d="m 194.81169,112.03265 c 0,-13.776798 -36.2966,-24.94481 -81.07206,-24.94481 -44.775414,0 -81.072068,11.168012 -81.072068,24.94481 0,13.77682 36.296654,24.94481 81.072068,24.94481 44.77546,0 81.07206,-11.16799 81.07206,-24.94481 z"
       style="fill:#ffffff;fill-opacity:1;fill-rule:nonzero;stroke:#000000;stroke-width:0.8767;stroke-linecap:butt;stroke-linejoin:miter;stroke-miterlimit:10;stroke-dasharray:6.57543, 6.57543;stroke-dashoffset:0;stroke-opacity:1" />
    <path
       id="path12"
       d="M 113.73963,112.03265 V 90.205218"
       style="fill:none;stroke:#000000;stroke-width:1.75342;stroke-linecap:butt;stroke-linejoin:miter;stroke-miterlimit:10;stroke-dasharray:none;stroke-opacity:1" />
    <path
       id="path13"
       d="m 194.81169,65.26043 c 0,-13.776796 -36.2966,-24.944809 -81.07206,-24.944809 -44.775414,0 -81.072068,11.168013 -81.072068,24.944809 0,13.776818 36.296654,24.944788 81.072068,24.944788 44.77546,0 81.07206,-11.16797 81.07206,-24.944788 z"
       style="fill:#ffffff;fill-opacity:1;fill-rule:nonzero;stroke:#000000;stroke-width:0.8767;stroke-linecap:butt;stroke-linejoin:miter;stroke-miterlimit:10;stroke-dasharray:6.57543, 6.57543;stroke-dashoffset:0;stroke-opacity:1" />
    <path
       id="path14"
       d="M 113.73963,65.26043 V 43.432999"
       style="fill:none;stroke:#000000;stroke-width:1.75342;stroke-linecap:butt;stroke-linejoin:miter;stroke-miterlimit:10;stroke-dasharray:none;stroke-opacity:1" />
    <path
       id="path15"
       d="m 194.81169,18.488211 c 0,-13.7767964 -36.2966,-24.9448096 -81.07206,-24.9448096 -44.775414,0 -81.072068,11.1680132 -81.072068,24.9448096 0,13.776774 36.296654,24.944788 81.072068,24.944788 44.77546,0 81.07206,-11.168014 81.07206,-24.944788 z"
       style="fill:#ffffff;fill-opacity:1;fill-rule:nonzero;stroke:#000000;stroke-width:0.8767;stroke-linecap:butt;stroke-linejoin:miter;stroke-miterlimit:10;stroke-dasharray:6.57543, 6.57543;stroke-dashoffset:0;stroke-opacity:1" />
    <path
       id="path16"
       d="M 113.73963,18.488211 V -3.3392207"
       style="fill:none;stroke:#000000;stroke-width:1.75342;stroke-linecap:butt;stroke-linejoin:miter;stroke-miterlimit:10;stroke-dasharray:none;stroke-opacity:1" />
    <path
       id="path17"
       d="m 194.81169,-28.284052 c 0,-13.776795 -36.2966,-24.944809 -81.07206,-24.944809 -44.775414,0 -81.072068,11.168014 -81.072068,24.944809 0,13.776796 36.296654,24.9448093 81.072068,24.9448093 44.77546,0 81.07206,-11.1680133 81.07206,-24.9448093 z"
       style="fill:#ffffff;fill-opacity:1;fill-rule:nonzero;stroke:#000000;stroke-width:0.8767;stroke-linecap:butt;stroke-linejoin:miter;stroke-miterlimit:10;stroke-dasharray:6.57543, 6.57543;stroke-dashoffset:0;stroke-opacity:1" />
    <path
       id="path18"
       d="m 119.9763,158.80487 c 0,-3.44441 -2.79222,-6.23665 -6.23667,-6.23665 -3.44441,0 -6.23667,2.79224 -6.23667,6.23665 0,3.44441 2.79226,6.23665 6.23667,6.23665 3.44445,0 6.23667,-2.79224 6.23667,-6.23665 z"
       style="fill:#000000;fill-opacity:1;fill-rule:nonzero;stroke:#000000;stroke-width:0.8767;stroke-linecap:butt;stroke-linejoin:miter;stroke-miterlimit:10;stroke-dasharray:none;stroke-opacity:1" />
    <path
       id="path19"
       d="m 116.85795,112.03265 c 0,-1.7222 -1.39612,-3.11832 -3.11832,-3.11832 -1.7222,0 -3.11832,1.39612 -3.11832,3.11832 0,1.72225 1.39612,3.11832 3.11832,3.11832 1.7222,0 3.11832,-1.39607 3.11832,-3.11832 z"
       style="fill:#000000;fill-opacity:1;fill-rule:nonzero;stroke:#000000;stroke-width:0.8767;stroke-linecap:butt;stroke-linejoin:miter;stroke-miterlimit:10;stroke-dasharray:none;stroke-opacity:1" />
    <path
       id="path20"
       d="m 116.85795,65.26043 c 0,-1.722204 -1.39612,-3.118324 -3.11832,-3.118324 -1.7222,0 -3.11832,1.39612 -3.11832,3.118324 0,1.722204 1.39612,3.118324 3.11832,3.118324 1.7222,0 3.11832,-1.39612 3.11832,-3.118324 z"
       style="fill:#000000;fill-opacity:1;fill-rule:nonzero;stroke:#000000;stroke-width:0.8767;stroke-linecap:butt;stroke-linejoin:miter;stroke-miterlimit:10;stroke-dasharray:none;stroke-opacity:1" />
    <path
       id="path21"
       d="m 116.85795,18.488211 c 0,-1.722226 -1.39612,-3.118324 -3.11832,-3.118324 -1.7222,0 -3.11832,1.396098 -3.11832,3.118324 0,1.722204 1.39612,3.118324 3.11832,3.118324 1.7222,0 3.11832,-1.39612 3.11832,-3.118324 z"
       style="fill:#000000;fill-opacity:1;fill-rule:nonzero;stroke:#000000;stroke-width:0.8767;stroke-linecap:butt;stroke-linejoin:miter;stroke-miterlimit:10;stroke-dasharray:none;stroke-opacity:1" />
    <path
       id="path22"
       d="m 119.9763,-28.284052 c 0,-3.444452 -2.79222,-6.23667 -6.23667,-6.23667 -3.44441,0 -6.23667,2.792218 -6.23667,6.23667 0,3.444408 2.79226,6.23667 6.23667,6.23667 3.44445,0 6.23667,-2.792262 6.23667,-6.23667 z"
       style="fill:#000000;fill-opacity:1;fill-rule:nonzero;stroke:#000000;stroke-width:0.8767;stroke-linecap:butt;stroke-linejoin:miter;stroke-miterlimit:10;stroke-dasharray:none;stroke-opacity:1" />
    <g
       id="g22"
       aria-label="˜x&#10;0"
       transform="matrix(2.2,0,0,2.2,79.005112,164.48087)">
      <path
         id="path23"
         d="M 4.1487813,-6.5027031 3.9847188,-6.6550469 c 0,0.011719 -0.375,0.4804688 -0.8203125,0.4804688 -0.2226563,0 -0.46875,-0.1523438 -0.6445313,-0.2460938 -0.2695312,-0.1640625 -0.4453125,-0.234375 -0.6210937,-0.234375 -0.375,0 -0.5625,0.2226563 -1.0664063,0.7734375 l 0.15234375,0.1523438 c 0,-0.011719 0.37500005,-0.4804688 0.82031255,-0.4804688 0.2226562,0 0.4804687,0.1523438 0.6445312,0.2578125 0.2695313,0.1523438 0.4453125,0.2226563 0.6210938,0.2226563 0.375,0 0.5625,-0.2109375 1.078125,-0.7734375 z m 0,0"
         style="fill:#000000;fill-opacity:1;fill-rule:nonzero;stroke:none" />
      <path
         id="path24"
         d="m 2.6956563,-3.0105156 c 0.058594,-0.2578125 0.2929687,-1.171875 0.984375,-1.171875 0.046875,0 0.2929687,0 0.5039062,0.1289062 -0.28125,0.046875 -0.4804687,0.3046875 -0.4804687,0.5390625 0,0.1640625 0.1054687,0.3515625 0.375,0.3515625 0.2226562,0 0.5390625,-0.1875 0.5390625,-0.5859375 0,-0.515625 -0.5859375,-0.65625 -0.9257813,-0.65625 -0.5742187,0 -0.9257812,0.5273438 -1.0429687,0.7617188 -0.2578125,-0.65625 -0.7851563,-0.7617188 -1.078125,-0.7617188 -1.0429688,0 -1.6054688,1.2890625 -1.6054688,1.5351563 0,0.1054687 0.10546875,0.1054687 0.1171875,0.1054687 0.08203125,0 0.1171875,-0.023437 0.12890625,-0.1171875 C 0.551125,-3.9362969 1.207375,-4.1823906 1.5472188,-4.1823906 c 0.1875,0 0.5390625,0.09375 0.5390625,0.6679687 0,0.3046875 -0.1640625,0.9726563 -0.5390625,2.3671875 C 1.394875,-0.52614063 1.0433125,-0.10426563 0.598,-0.10426563 c -0.0585938,0 -0.28125,0 -0.4921875,-0.12890625 0.24609375,-0.0585938 0.46875,-0.26953125 0.46875,-0.5390625 0,-0.26953122 -0.22265625,-0.35156252 -0.375,-0.35156252 -0.29296875,0 -0.5390625,0.25781252 -0.5390625,0.57421877 0,0.45703125 0.4921875,0.65625 0.9375,0.65625 0.65625,0 1.0078125,-0.69140625 1.0429688,-0.75 0.1171875,0.36328125 0.4804687,0.75 1.078125,0.75 1.0195312,0 1.59375,-1.27734377 1.59375,-1.53515627 0,-0.09375 -0.09375,-0.09375 -0.1289063,-0.09375 -0.082031,0 -0.1054687,0.035156 -0.1289062,0.1054688 -0.328125,1.06640622 -0.9960938,1.31249997 -1.3242188,1.31249997 -0.3867187,0 -0.5390625,-0.328125 -0.5390625,-0.65625 0,-0.22265625 0.058594,-0.44531247 0.1640625,-0.87890627 z m 0,0"
         style="fill:#000000;fill-opacity:1;fill-rule:nonzero;stroke:none" />
      <path
         id="path25"
         d="m 8.6575703,-0.73121875 c 0,-0.76171875 -0.09375,-1.31250005 -0.4101562,-1.80468755 -0.2226563,-0.3164062 -0.6445313,-0.5976562 -1.2070313,-0.5976562 -1.6171875,0 -1.6171875,1.8984375 -1.6171875,2.40234375 0,0.50390625 0,2.36718745 1.6171875,2.36718745 1.6171875,0 1.6171875,-1.8632812 1.6171875,-2.36718745 z M 7.0403828,1.43675 c -0.3164062,0 -0.75,-0.1875 -0.890625,-0.76171875 -0.09375,-0.41015625 -0.09375,-0.984375 -0.09375,-1.5 0,-0.50390625 0,-1.03125005 0.1054688,-1.41796875 0.1523437,-0.5507813 0.5976562,-0.6914063 0.8789062,-0.6914063 0.375,0 0.7382813,0.2226563 0.8671875,0.6328125 0.1054688,0.375 0.1171875,0.8789063 0.1171875,1.47656255 0,0.515625 0,1.04296875 -0.09375,1.4765625 C 7.7903828,1.2844062 7.3216328,1.43675 7.0403828,1.43675 Z m 0,0"
         style="fill:#000000;fill-opacity:1;fill-rule:nonzero;stroke:none" />
    </g>
    <g
       id="g25"
       aria-label="˜x&#10;1"
       transform="matrix(2.2,0,0,2.2,79.005112,-22.604927)">
      <path
         id="path26"
         d="M 4.1487813,-6.5037422 3.9847188,-6.6560859 c 0,0.011719 -0.375,0.4804687 -0.8203125,0.4804687 -0.2226563,0 -0.46875,-0.1523437 -0.6445313,-0.2460937 -0.2695312,-0.1640625 -0.4453125,-0.234375 -0.6210937,-0.234375 -0.375,0 -0.5625,0.2226562 -1.0664063,0.7734375 l 0.15234375,0.1523437 c 0,-0.011719 0.37500005,-0.4804687 0.82031255,-0.4804687 0.2226562,0 0.4804687,0.1523437 0.6445312,0.2578125 0.2695313,0.1523437 0.4453125,0.2226562 0.6210938,0.2226562 0.375,0 0.5625,-0.2109375 1.078125,-0.7734375 z m 0,0"
         style="fill:#000000;fill-opacity:1;fill-rule:nonzero;stroke:none" />
      <path
         id="path27"
         d="m 2.6956563,-3.0115547 c 0.058594,-0.2578125 0.2929687,-1.171875 0.984375,-1.171875 0.046875,0 0.2929687,0 0.5039062,0.1289063 -0.28125,0.046875 -0.4804687,0.3046875 -0.4804687,0.5390625 0,0.1640625 0.1054687,0.3515625 0.375,0.3515625 0.2226562,0 0.5390625,-0.1875 0.5390625,-0.5859375 0,-0.515625 -0.5859375,-0.65625 -0.9257813,-0.65625 -0.5742187,0 -0.9257812,0.5273437 -1.0429687,0.7617187 -0.2578125,-0.65625 -0.7851563,-0.7617187 -1.078125,-0.7617187 -1.0429688,0 -1.6054688,1.2890625 -1.6054688,1.5351562 0,0.1054688 0.10546875,0.1054688 0.1171875,0.1054688 0.08203125,0 0.1171875,-0.023437 0.12890625,-0.1171875 C 0.551125,-3.9373359 1.207375,-4.1834297 1.5472188,-4.1834297 c 0.1875,0 0.5390625,0.09375 0.5390625,0.6679688 0,0.3046875 -0.1640625,0.9726562 -0.5390625,2.3671875 C 1.394875,-0.52717969 1.0433125,-0.10530469 0.598,-0.10530469 c -0.0585938,0 -0.28125,0 -0.4921875,-0.12890625 0.24609375,-0.0585937 0.46875,-0.26953125 0.46875,-0.5390625 0,-0.26953126 -0.22265625,-0.35156246 -0.375,-0.35156246 -0.29296875,0 -0.5390625,0.25781246 -0.5390625,0.57421871 0,0.45703125 0.4921875,0.65625 0.9375,0.65625 0.65625,0 1.0078125,-0.69140625 1.0429688,-0.75 0.1171875,0.36328125 0.4804687,0.75 1.078125,0.75 1.0195312,0 1.59375,-1.27734371 1.59375,-1.53515621 0,-0.09375 -0.09375,-0.09375 -0.1289063,-0.09375 -0.082031,0 -0.1054687,0.035156 -0.1289062,0.1054687 -0.328125,1.06640626 -0.9960938,1.31250001 -1.3242188,1.31250001 -0.3867187,0 -0.5390625,-0.328125 -0.5390625,-0.65625 0,-0.22265625 0.058594,-0.44531251 0.1640625,-0.87890621 z m 0,0"
         style="fill:#000000;fill-opacity:1;fill-rule:nonzero;stroke:none" />
      <path
         id="path28"
         d="m 7.3919453,-2.9353828 c 0,-0.1875 -0.011719,-0.1992188 -0.2109375,-0.1992188 -0.4453125,0.4335938 -1.078125,0.4453125 -1.359375,0.4453125 v 0.2460938 c 0.1640625,0 0.6210938,0 1.0078125,-0.1875 v 3.55078124 c 0,0.23437496 0,0.32812496 -0.6914062,0.32812496 H 5.8685078 v 0.2460938 c 0.1289063,-0.011719 0.984375,-0.023437 1.2421875,-0.023437 0.2109375,0 1.0898438,0.011719 1.2421875,0.023437 V 1.2482109 H 8.0950703 c -0.703125,0 -0.703125,-0.09375 -0.703125,-0.32812496 z m 0,0"
         style="fill:#000000;fill-opacity:1;fill-rule:nonzero;stroke:none" />
    </g>
    <path
       id="path29"
       d="m 363.86933,113.6429 -1.83046,-4.38282 c -0.0773,-0.15468 -0.10307,-0.25781 -0.10307,-0.28359 0,-0.12891 0.36093,-0.54141 1.28906,-0.61875 0.20625,-0.0257 0.43828,-0.0516 0.43828,-0.4125 0,-0.28359 -0.25782,-0.28359 -0.33516,-0.28359 -0.90234,0 -1.83047,0.0773 -2.75859,0.0773 -0.54141,0 -1.90782,-0.0773 -2.44922,-0.0773 -0.12891,0 -0.4125,0 -0.4125,0.43828 0,0.25781 0.23203,0.25781 0.51563,0.25781 1.31484,0 1.44375,0.20625 1.65,0.69609 l 2.57812,6.11016 -4.61485,4.97578 -0.28359,0.23203 c -1.08281,1.16015 -2.11406,1.5211 -3.22266,1.59844 -0.28359,0 -0.48984,0 -0.48984,0.43828 0,0 0,0.23203 0.28359,0.23203 0.67032,0 1.39219,-0.0773 2.0625,-0.0773 0.79923,0 1.67579,0.0773 2.44923,0.0773 0.12891,0 0.38671,0 0.38671,-0.43828 0,-0.23203 -0.20625,-0.23203 -0.25781,-0.23203 -0.18047,-0.0257 -0.87656,-0.0773 -0.87656,-0.69609 0,-0.33516 0.33516,-0.6961 0.59297,-0.9797 l 2.24296,-2.37187 1.95938,-2.13984 2.21719,5.23359 c 0.10307,0.23203 0.10307,0.25782 0.10307,0.30937 0,0.18048 -0.4125,0.54141 -1.26328,0.64454 -0.23204,0 -0.43829,0.0257 -0.43829,0.4125 0,0.25781 0.25782,0.25781 0.33516,0.25781 0.61875,0 2.13984,-0.0773 2.75859,-0.0773 0.54141,0 1.88204,0.0773 2.42344,0.0773 0.15469,0 0.43829,0 0.43829,-0.4125 0,-0.25781 -0.23204,-0.25781 -0.4125,-0.25781 -1.46954,-0.0257 -1.49532,-0.10307 -1.88204,-0.97969 -0.85078,-2.03672 -2.32031,-5.43985 -2.83594,-6.75469 1.49532,-1.54687 3.81563,-4.15078 4.51173,-4.76953 0.61875,-0.51563 1.46952,-1.05703 2.78437,-1.10859 0.28359,-0.0257 0.46406,-0.0257 0.46406,-0.43829 0,-0.0257 0,-0.2578 -0.28359,-0.2578 -0.64453,0 -1.36641,0.0773 -2.0625,0.0773 -0.79922,0 -1.62422,-0.0773 -2.42344,-0.0773 -0.1289,0 -0.4125,0 -0.4125,0.43828 0,0.15468 0.10307,0.23202 0.25781,0.25781 0.20625,0.0257 0.87656,0.0516 0.87656,0.67031 0,0.30938 -0.23202,0.59297 -0.4125,0.79922 z m 0,0"
       style="fill:#000000;fill-opacity:1;fill-rule:nonzero;stroke:none;stroke-width:2.2"
       aria-label="X" />
    <path
       id="path30"
       d="m 444.26362,65.26043 c 0,-13.776796 -36.29662,-24.944809 -81.07207,-24.944809 -44.77541,0 -81.07207,11.168013 -81.07207,24.944809 0,13.776818 36.29666,24.944788 81.07207,24.944788 44.77545,0 81.07207,-11.16797 81.07207,-24.944788 z"
       style="fill:#ffffff;fill-opacity:1;fill-rule:nonzero;stroke:#000000;stroke-width:0.8767;stroke-linecap:butt;stroke-linejoin:miter;stroke-miterlimit:10;stroke-dasharray:6.57543, 6.57543;stroke-dashoffset:0;stroke-opacity:1" />
    <path
       id="path31"
       d="m 369.42822,65.26043 c 0,-3.44443 -2.79222,-6.236692 -6.23667,-6.236692 -3.44443,0 -6.23665,2.792262 -6.23665,6.236692 0,3.444452 2.79222,6.23667 6.23665,6.23667 3.44445,0 6.23667,-2.792218 6.23667,-6.23667 z"
       style="fill:#000000;fill-opacity:1;fill-rule:nonzero;stroke:#000000;stroke-width:0.8767;stroke-linecap:butt;stroke-linejoin:miter;stroke-miterlimit:10;stroke-dasharray:none;stroke-opacity:1" />
    <path
       id="path32"
       d="m 339.29981,63.356567 c 0.12891,-0.567187 0.64454,-2.578125 2.16563,-2.578125 0.10307,0 0.64453,0 1.10859,0.283593 -0.61875,0.103125 -1.05703,0.670313 -1.05703,1.185938 0,0.360937 0.23203,0.773437 0.825,0.773437 0.48985,0 1.18594,-0.4125 1.18594,-1.289062 0,-1.134375 -1.28906,-1.44375 -2.03672,-1.44375 -1.26328,0 -2.03672,1.160157 -2.29453,1.675782 -0.56719,-1.44375 -1.72734,-1.675782 -2.37188,-1.675782 -2.29453,0 -3.53203,2.835937 -3.53203,3.377343 0,0.232032 0.23203,0.232032 0.25782,0.232032 0.18046,0 0.2578,-0.05156 0.28359,-0.257813 0.74766,-2.320312 2.19141,-2.861718 2.93906,-2.861718 0.4125,0 1.18594,0.20625 1.18594,1.469531 0,0.670312 -0.36094,2.139843 -1.18594,5.207812 -0.33515,1.366406 -1.1086,2.294531 -2.08828,2.294531 -0.12891,0 -0.61875,0 -1.08282,-0.283593 0.54141,-0.128907 1.03125,-0.592969 1.03125,-1.185938 0,-0.592969 -0.48984,-0.773437 -0.825,-0.773437 -0.64452,0 -1.18593,0.567187 -1.18593,1.263281 0,1.005469 1.08281,1.44375 2.0625,1.44375 1.44375,0 2.21718,-1.521094 2.29453,-1.65 0.25781,0.799219 1.05703,1.65 2.37188,1.65 2.24297,0 3.50625,-2.810156 3.50625,-3.377344 0,-0.20625 -0.20625,-0.20625 -0.2836,-0.20625 -0.18047,0 -0.23203,0.07734 -0.28359,0.232031 -0.72188,2.346094 -2.19141,2.8875 -2.91329,2.8875 -0.85077,0 -1.18593,-0.721875 -1.18593,-1.44375 0,-0.489843 0.12891,-0.979687 0.36093,-1.933593 z m 0,0"
       style="fill:#000000;fill-opacity:1;fill-rule:nonzero;stroke:none;stroke-width:2.2"
       aria-label="x" />
    <path
       id="path33"
       d="m -48.404483,46.551367 c 19.29235,-11.13827 43.0705645,-11.13827 61.015239,-0.778052"
       style="fill:none;stroke:#000000;stroke-width:1.75342;stroke-linecap:butt;stroke-linejoin:miter;stroke-miterlimit:10;stroke-dasharray:none;stroke-opacity:1" />
    <path
       id="path34"
       d="m 11.929062,40.115798 c -0.608008,1.622965 0.824117,5.410771 1.421889,6.084852 -0.882661,-0.180628 -4.8790467,0.473095 -5.980546,1.811149"
       style="fill:none;stroke:#000000;stroke-width:1.40269;stroke-linecap:round;stroke-linejoin:round;stroke-miterlimit:10;stroke-dasharray:none;stroke-opacity:1" />
    <g
       id="g34"
       aria-label="˜γ"
       transform="matrix(2.2,0,0,2.2,-22.703094,26.796073)">
      <path
         id="path35"
         d="M 4.1493125,-6.5026875 3.98525,-6.6550313 c 0,0.011719 -0.375,0.4804688 -0.8203125,0.4804688 -0.2226563,0 -0.46875,-0.1523438 -0.6445313,-0.2460938 -0.2695312,-0.1640625 -0.4453125,-0.234375 -0.6210937,-0.234375 -0.375,0 -0.5625,0.2226563 -1.06640625,0.7734375 L 0.98525,-5.72925 c 0,-0.011719 0.375,-0.4804688 0.8203125,-0.4804688 0.2226562,0 0.4804687,0.1523438 0.6445312,0.2578125 0.2695313,0.1523438 0.4453125,0.2226563 0.6210938,0.2226563 0.375,0 0.5625,-0.2109375 1.078125,-0.7734375 z m 0,0"
         style="fill:#000000;fill-opacity:1;fill-rule:nonzero;stroke:none" />
      <path
         id="path36"
         d="m 0.04482031,-2.5300313 c 0.38671875,-1.1484375 1.47656249,-1.1601562 1.58203129,-1.1601562 1.5,0 1.6171875,1.7460937 1.6171875,2.53125 0,0.609375 -0.058594,0.78515625 -0.1171875,0.984375 C 2.9041953,0.552 2.5995078,1.7004375 2.5995078,1.95825 c 0,0.1171875 0.058594,0.1875 0.1289063,0.1875 0.1289062,0 0.2109375,-0.2226563 0.328125,-0.5976563 0.2226562,-0.84374995 0.328125,-1.40624995 0.3632812,-1.71093745 0.023437,-0.140625 0.035156,-0.26953125 0.082031,-0.3984375 C 3.8182575,-1.5456563 4.45107,-3.0222188 4.8495075,-3.8190938 c 0.070312,-0.1171875 0.1992188,-0.328125 0.1992188,-0.375 0,-0.09375 -0.1054688,-0.09375 -0.1289063,-0.09375 -0.023437,0 -0.082031,0 -0.1171875,0.070312 -0.515625,0.9375 -0.9140625,1.9335938 -1.3125,2.9414063 -0.011719,-0.3046875 -0.023437,-1.0664063 -0.4101562,-2.0273438 -0.234375,-0.609375 -0.6328125,-1.1015625 -1.3242188,-1.1015625 -1.24218749,0 -1.94531249,1.5117188 -1.94531249,1.828125 0,0.09375 0.09375,0.09375 0.1875,0.09375 z m 0,0"
         style="fill:#000000;fill-opacity:1;fill-rule:nonzero;stroke:none" />
    </g>
    <path
       id="path37"
       d="m 207.28406,46.551367 c 19.29242,-11.13827 43.07061,-11.13827 61.01531,-0.778052"
       style="fill:none;stroke:#000000;stroke-width:1.75342;stroke-linecap:butt;stroke-linejoin:miter;stroke-miterlimit:10;stroke-dasharray:none;stroke-opacity:1" />
    <path
       id="path38"
       d="m 267.61766,40.115798 c -0.60801,1.622965 0.82412,5.410771 1.42188,6.084852 -0.88265,-0.180628 -4.87903,0.473095 -5.98054,1.811149"
       style="fill:none;stroke:#000000;stroke-width:1.40269;stroke-linecap:round;stroke-linejoin:round;stroke-miterlimit:10;stroke-dasharray:none;stroke-opacity:1" />
    <path
       id="path39"
       d="m 233.92539,26.876098 c -0.18047,0.747656 -0.20625,0.902343 -1.18593,0.902343 -0.25782,0 -0.48986,0 -0.48986,0.4125 0,0.180468 0.10307,0.257813 0.28361,0.257813 0.59296,0 1.21171,-0.07734 1.83046,-0.07734 0.72188,0 1.46954,0.07734 2.16563,0.07734 0.12891,0 0.4125,0 0.4125,-0.438281 0,-0.232032 -0.23204,-0.232032 -0.54141,-0.232032 -1.08281,0 -1.08281,-0.154686 -1.08281,-0.360937 0,-0.257813 0.92813,-3.841406 1.05702,-4.382813 0.30938,0.644532 0.90236,1.392188 2.03673,1.392188 2.52656,0 5.28515,-3.196875 5.28515,-6.419531 0,-2.0625 -1.26327,-3.50625 -2.93906,-3.50625 -1.08282,0 -2.13984,0.799219 -2.86171,1.65 -0.20625,-1.185938 -1.16016,-1.65 -1.95938,-1.65 -1.00548,0 -1.44375,0.850782 -1.62423,1.263282 -0.4125,0.747655 -0.69609,2.062499 -0.69609,2.114061 0,0.232032 0.23204,0.232032 0.28359,0.232032 0.20625,0 0.23204,-0.02578 0.36095,-0.515625 0.36093,-1.546875 0.79921,-2.603906 1.59843,-2.603906 0.38673,0 0.67032,0.180468 0.67032,1.005468 0,0.515625 -0.0516,0.747657 -0.1547,1.108595 z m 3.86719,-9.513281 c 0.15468,-0.592969 0.74765,-1.211719 1.13438,-1.546875 0.77343,-0.670312 1.39218,-0.825 1.77889,-0.825 0.87657,0 1.3922,0.773438 1.3922,2.0625 0,1.289062 -0.72188,3.815624 -1.10859,4.640624 -0.74766,1.546875 -1.8047,2.26875 -2.60391,2.26875 -1.44375,0 -1.72734,-1.830468 -1.72734,-1.959374 0,-0.05156 0,-0.07734 0.0516,-0.360938 z m 0,0"
       style="fill:#000000;fill-opacity:1;fill-rule:nonzero;stroke:none;stroke-width:2.2"
       aria-label="p" />
  </g>
</svg>
