<?xml version="1.0" encoding="UTF-8" standalone="no"?>
<!-- Created with Inkscape (http://www.inkscape.org/) -->

<svg
   version="1.1"
   id="svg1"
   width="7.8741117in"
   height="3.2442024in"
   viewBox="0 0 755.91472 311.44343"
   sodipodi:docname="viete_example.svg"
   inkscape:version="1.4.2 (ebf0e940d0, 2025-05-08)"
   xmlns:inkscape="http://www.inkscape.org/namespaces/inkscape"
   xmlns:sodipodi="http://sodipodi.sourceforge.net/DTD/sodipodi-0.dtd"
   xmlns="http://www.w3.org/2000/svg"
   xmlns:svg="http://www.w3.org/2000/svg">
  <defs
     id="defs1" />
  <sodipodi:namedview
     id="namedview1"
     pagecolor="#ffffff"
     bordercolor="#000000"
     borderopacity="0.25"
     inkscape:showpageshadow="2"
     inkscape:pageopacity="0.0"
     inkscape:pagecheckerboard="0"
     inkscape:deskcolor="#d1d1d1"
     inkscape:zoom="1.28"
     inkscape:cx="278.51563"
     inkscape:cy="200.78125"
     inkscape:window-width="1920"
     inkscape:window-height="1011"
     inkscape:window-x="0"
     inkscape:window-y="0"
     inkscape:window-maximized="1"
     inkscape:current-layer="g1"
     inkscape:document-units="in">
    <inkscape:page
       x="1.0497358e-06"
       y="1.0768244e-06"
       inkscape:label="1"
       id="page1"
       width="755.91473"
       height="311.44342"
       margin="0"
       bleed="0" />
  </sodipodi:namedview>
  <g
     id="g1"
     inkscape:groupmode="layer"
     inkscape:label="1"
     transform="translate(188.71606,73.435075)">
    <path
       id="path1"
       d="M -37.53308,238.00835 V -63.135539"
       style="fill:none;stroke:#808080;stroke-width:1.06267;stroke-linecap:butt;stroke-linejoin:miter;stroke-miterlimit:10;stroke-dasharray:none;stroke-opacity:1" />
    <path
       id="path2"
       d="m -41.783772,-59.947516 c 1.594,-0.265707 3.985067,-3.188027 4.250693,-3.984987 0.265627,0.79696 2.656694,3.71928 4.250694,3.984987"
       style="fill:none;stroke:#808080;stroke-width:0.850107;stroke-linecap:round;stroke-linejoin:round;stroke-miterlimit:10;stroke-dasharray:none;stroke-opacity:1" />
    <path
       id="path3"
       d="M -188.71606,86.825364 H 112.42782"
       style="fill:none;stroke:#808080;stroke-width:1.06267;stroke-linecap:butt;stroke-linejoin:miter;stroke-miterlimit:10;stroke-dasharray:none;stroke-opacity:1" />
    <path
       id="path4"
       d="m 109.2398,82.574671 c 0.26571,1.593999 3.18803,3.985066 3.98499,4.250693 -0.79696,0.265626 -3.71928,2.656693 -3.98499,4.250693"
       style="fill:none;stroke:#808080;stroke-width:0.850107;stroke-linecap:round;stroke-linejoin:round;stroke-miterlimit:10;stroke-dasharray:none;stroke-opacity:1" />
    <path
       id="path5"
       d="m 88.789964,63.853989 v -6.875 c 0,-0.625 0,-0.9375 0.59375,-1.03125 0.28125,-0.03125 1.03125,-0.03125 1.5625,-0.03125 2.40625,0 5.375,0.09375 5.375,3.9375 0,1.84375 -0.625,4 -4.5625,4 z m 5.625,0.34375 c 2.562499,-0.625 4.65625,-2.25 4.65625,-4.34375 0,-2.53125 -3.031251,-4.78125 -6.9375,-4.78125 h -8.34375 v 0.84375 h 0.625 c 2.0625,0 2.09375,0.28125 2.09375,1.25 v 14 c 0,0.9375 -0.03125,1.25 -2.09375,1.25 h -0.625 v 0.8125 c 0.9375,-0.09375 2.84375,-0.09375 3.875,-0.09375 1.03125,0 2.90625,0 3.875,0.09375 v -0.8125 h -0.625 c -2.0625,0 -2.125,-0.3125 -2.125,-1.25 v -6.71875 h 3.0625 c 0.4375,0 1.53125,0 2.46875,0.90625 1.03125,0.9375 1.03125,1.75 1.03125,3.53125 0,1.75 0,2.8125 1.062499,3.8125 1.093751,0.96875 2.5625,1.125 3.343751,1.125 2.093746,0 2.531246,-2.1875 2.531246,-2.9375 0,-0.15625 0,-0.4375 -0.34375,-0.4375 -0.28125,0 -0.28125,0.21875 -0.3125,0.40625 -0.15625,1.90625 -1.09375,2.375 -1.749996,2.375 -1.3125,0 -1.531251,-1.34375 -1.875,-3.8125 l -0.375,-2.125 c -0.468751,-1.71875 -1.75,-2.59375 -3.21875,-3.09375 z m 10.960936,2.34375 c 0.15625,-3.96875 2.40625,-4.625 3.3125,-4.625 2.71875,0 3,3.59375 3,4.625 z m -0.0312,0.5625 h 7.4375 c 0.5625,0 0.65625,0 0.65625,-0.5625 0,-2.625 -1.4375,-5.21875 -4.75,-5.21875 -3.09375,0 -5.53125,2.75 -5.53125,6.0625 0,3.5625 2.78125,6.125 5.84375,6.125 3.25,0 4.4375,-2.9375 4.4375,-3.4375 0,-0.28125 -0.21875,-0.3125 -0.34375,-0.3125 -0.25,0 -0.3125,0.15625 -0.34375,0.375 -0.9375,2.71875 -3.34375,2.71875 -3.59375,2.71875 -1.34375,0 -2.40625,-0.78125 -3,-1.78125 -0.8125,-1.28125 -0.8125,-3.03125 -0.8125,-3.96875 z m 0,0"
       style="fill:#000000;fill-opacity:1;fill-rule:nonzero;stroke:none;stroke-width:2.66667"
       aria-label="Re" />
    <path
       id="path6"
       d="m -24.749106,-56.224135 c 0,-0.96875 0.09375,-1.25 2.1875,-1.25 h 0.6875 v -0.84375 c -0.9375,0.09375 -3.03125,0.09375 -4.03125,0.09375 -1.03125,0 -3.125,0 -4.0625,-0.09375 v 0.84375 h 0.6875 c 2.09375,0 2.1875,0.28125 2.1875,1.25 v 13.999999 c 0,0.9375 -0.09375,1.25 -2.1875,1.25 h -0.6875 v 0.8125 c 0.9375,-0.09375 3.03125,-0.09375 4.03125,-0.09375 1.03125,0 3.125,0 4.0625,0.09375 v -0.8125 h -0.6875 c -2.09375,0 -2.1875,-0.3125 -2.1875,-1.25 z m 6.5625,6.9375 v 7.093749 c 0,1.21875 -0.3125,1.21875 -2.09375,1.21875 v 0.8125 c 0.9375,-0.03125 2.28125,-0.09375 3,-0.09375 0.6875,0 2.09375,0.0625 2.96875,0.09375 v -0.8125 c -1.75,0 -2.0625,0 -2.0625,-1.21875 v -4.874999 c 0,-2.75 1.90625,-4.25 3.59375,-4.25 1.65625,0 1.96875,1.4375 1.96875,2.9375 v 6.187499 c 0,1.21875 -0.3125,1.21875 -2.0625,1.21875 v 0.8125 c 0.90625,-0.03125 2.28125,-0.09375 2.9999996,-0.09375 0.6874999,0 2.0624999,0.0625 2.96875,0.09375 v -0.8125 c -1.7812501,0 -2.0937501,0 -2.0937501,-1.21875 v -4.874999 c 0,-2.75 1.9062501,-4.25 3.5937501,-4.25 1.6874997,0 1.9687503,1.4375 1.9687503,2.9375 v 6.187499 c 0,1.21875 -0.2812506,1.21875 -2.0625004,1.21875 v 0.8125 c 0.9374999,-0.03125 2.2812498,-0.09375 2.9999991,-0.09375 0.6875013,0 2.06250126,0.0625 2.9687519,0.09375 v -0.8125 c -1.37499996,0 -2.0312506,0 -2.0625013,-0.8125 v -5.062499 c 0,-2.28125 0,-3.125 -0.8437493,-4.0625 -0.3437493,-0.46875 -1.25,-1 -2.7812503,-1 -2.2187501,0 -3.4062501,1.59375 -3.8437501,2.625 -0.375,-2.3125 -2.3437495,-2.625 -3.5312495,-2.625 -1.9375,0 -3.1875,1.15625 -3.9375,2.8125 v -2.8125 l -3.75,0.3125 v 0.8125 c 1.875,0 2.09375,0.187498 2.09375,1.5 z m 0,0"
       style="fill:#000000;fill-opacity:1;fill-rule:nonzero;stroke:none;stroke-width:2.66667"
       aria-label="Im" />
    <path
       id="path7"
       d="M 416.01581,238.00835 V -63.135539"
       style="fill:none;stroke:#808080;stroke-width:1.06267;stroke-linecap:butt;stroke-linejoin:miter;stroke-miterlimit:10;stroke-dasharray:none;stroke-opacity:1" />
    <path
       id="path8"
       d="m 411.76513,-59.947516 c 1.594,-0.265707 3.98507,-3.188027 4.2507,-3.984987 0.26562,0.79696 2.65669,3.71928 4.25069,3.984987"
       style="fill:none;stroke:#808080;stroke-width:0.850107;stroke-linecap:round;stroke-linejoin:round;stroke-miterlimit:10;stroke-dasharray:none;stroke-opacity:1" />
    <path
       id="path9"
       d="M 264.83283,86.825364 H 565.97672"
       style="fill:none;stroke:#808080;stroke-width:1.06267;stroke-linecap:butt;stroke-linejoin:miter;stroke-miterlimit:10;stroke-dasharray:none;stroke-opacity:1" />
    <path
       id="path10"
       d="m 562.7887,82.574671 c 0.26571,1.593999 3.18803,3.985066 3.98499,4.250693 -0.79696,0.265626 -3.71928,2.656693 -3.98499,4.250693"
       style="fill:none;stroke:#808080;stroke-width:0.850107;stroke-linecap:round;stroke-linejoin:round;stroke-miterlimit:10;stroke-dasharray:none;stroke-opacity:1" />
    <path
       id="path11"
       d="m 542.33684,63.853989 v -6.875 c 0,-0.625 0,-0.9375 0.59375,-1.03125 0.28125,-0.03125 1.03125,-0.03125 1.5625,-0.03125 2.40625,0 5.375,0.09375 5.375,3.9375 0,1.84375 -0.625,4 -4.5625,4 z m 5.625,0.34375 c 2.5625,-0.625 4.65625,-2.25 4.65625,-4.34375 0,-2.53125 -3.03125,-4.78125 -6.9375,-4.78125 h -8.34375 v 0.84375 h 0.625 c 2.0625,0 2.09375,0.28125 2.09375,1.25 v 14 c 0,0.9375 -0.0312,1.25 -2.09375,1.25 h -0.625 v 0.8125 c 0.9375,-0.09375 2.84375,-0.09375 3.875,-0.09375 1.03125,0 2.90625,0 3.875,0.09375 v -0.8125 h -0.625 c -2.0625,0 -2.125,-0.3125 -2.125,-1.25 v -6.71875 h 3.0625 c 0.4375,0 1.53125,0 2.46875,0.90625 1.03125,0.9375 1.03125,1.75 1.03125,3.53125 0,1.75 0,2.8125 1.0625,3.8125 1.09375,0.96875 2.5625,1.125 3.34375,1.125 2.09375,0 2.53125,-2.1875 2.53125,-2.9375 0,-0.15625 0,-0.4375 -0.34375,-0.4375 -0.28125,0 -0.28125,0.21875 -0.3125,0.40625 -0.15625,1.90625 -1.09375,2.375 -1.75,2.375 -1.3125,0 -1.53125,-1.34375 -1.875,-3.8125 l -0.375,-2.125 c -0.46875,-1.71875 -1.75,-2.59375 -3.21875,-3.09375 z m 10.96094,2.34375 c 0.15625,-3.96875 2.40625,-4.625 3.3125,-4.625 2.71875,0 3,3.59375 3,4.625 z m -0.0312,0.5625 h 7.4375 c 0.5625,0 0.65625,0 0.65625,-0.5625 0,-2.625 -1.43751,-5.21875 -4.75001,-5.21875 -3.09374,0 -5.53124,2.75 -5.53124,6.0625 0,3.5625 2.78124,6.125 5.84374,6.125 3.25,0 4.43751,-2.9375 4.43751,-3.4375 0,-0.28125 -0.21875,-0.3125 -0.34375,-0.3125 -0.25,0 -0.3125,0.15625 -0.34376,0.375 -0.93749,2.71875 -3.34374,2.71875 -3.59374,2.71875 -1.34376,0 -2.40626,-0.78125 -3,-1.78125 -0.8125,-1.28125 -0.8125,-3.03125 -0.8125,-3.96875 z m 0,0"
       style="fill:#000000;fill-opacity:1;fill-rule:nonzero;stroke:none;stroke-width:2.66667"
       aria-label="Re" />
    <path
       id="path12"
       d="m 428.79776,-56.224135 c 0,-0.96875 0.0937,-1.25 2.1875,-1.25 h 0.6875 v -0.84375 c -0.9375,0.09375 -3.03125,0.09375 -4.03125,0.09375 -1.03125,0 -3.125,0 -4.0625,-0.09375 v 0.84375 h 0.6875 c 2.09375,0 2.1875,0.28125 2.1875,1.25 v 13.999999 c 0,0.9375 -0.0937,1.25 -2.1875,1.25 h -0.6875 v 0.8125 c 0.9375,-0.09375 3.03125,-0.09375 4.03125,-0.09375 1.03125,0 3.125,0 4.0625,0.09375 v -0.8125 h -0.6875 c -2.09375,0 -2.1875,-0.3125 -2.1875,-1.25 z m 6.55469,6.9375 v 7.093749 c 0,1.21875 -0.3125,1.21875 -2.09375,1.21875 v 0.8125 c 0.9375,-0.03125 2.28125,-0.09375 3,-0.09375 0.6875,0 2.09375,0.0625 2.96875,0.09375 v -0.8125 c -1.75,0 -2.0625,0 -2.0625,-1.21875 v -4.874999 c 0,-2.75 1.90625,-4.25 3.59375,-4.25 1.65625,0 1.96875,1.4375 1.96875,2.9375 v 6.187499 c 0,1.21875 -0.3125,1.21875 -2.0625,1.21875 v 0.8125 c 0.90625,-0.03125 2.28125,-0.09375 3,-0.09375 0.6875,0 2.0625,0.0625 2.96875,0.09375 v -0.8125 c -1.78125,0 -2.09375,0 -2.09375,-1.21875 v -4.874999 c 0,-2.75 1.90625,-4.25 3.59375,-4.25 1.6875,0 1.96875,1.4375 1.96875,2.9375 v 6.187499 c 0,1.21875 -0.28125,1.21875 -2.0625,1.21875 v 0.8125 c 0.9375,-0.03125 2.28125,-0.09375 3,-0.09375 0.6875,0 2.0625,0.0625 2.96875,0.09375 v -0.8125 c -1.375,0 -2.03125,0 -2.0625,-0.8125 v -5.062499 c 0,-2.28125 0,-3.125 -0.84375,-4.0625 -0.34375,-0.46875 -1.25,-1 -2.78125,-1 -2.21875,0 -3.40625,1.59375 -3.84375,2.625 -0.375,-2.3125 -2.34375,-2.625 -3.53125,-2.625 -1.9375,0 -3.1875,1.15625 -3.9375,2.8125 v -2.8125 l -3.75,0.3125 v 0.8125 c 1.875,0 2.09375,0.187498 2.09375,1.5 z m 0,0"
       style="fill:#000000;fill-opacity:1;fill-rule:nonzero;stroke:none;stroke-width:2.66667"
       aria-label="Im" />
    <path
       id="path13"
       d="m 113.6499,-26.561833 c 46.76944,-27.001866 104.41349,-27.001866 149.54939,-0.943094"
       style="fill:none;stroke:#000000;stroke-width:2.12536;stroke-linecap:butt;stroke-linejoin:miter;stroke-miterlimit:10;stroke-dasharray:none;stroke-opacity:1" />
    <path
       id="path14"
       d="m 262.37298,-34.362529 c -0.73698,1.96723 0.99893,6.558511 1.7235,7.375579 -1.06989,-0.218944 -5.914,0.573448 -7.24915,2.195332"
       style="fill:none;stroke:#000000;stroke-width:1.70023;stroke-linecap:round;stroke-linejoin:round;stroke-miterlimit:10;stroke-dasharray:none;stroke-opacity:1" />
    <path
       id="path15"
       d="m 187.1962,-57.560074 c 0.375,-3.28125 0.375,-5.65625 0.375,-6.0625 0,-1.875 0,-9.812499 -4.8125,-9.812499 -0.90625,0 -1.84375,0.75 -1.84375,1.125 0,0.187498 0.125,0.187498 0.5,0.218749 3.875,0.34375 4.1875,6.4375 4.1875,9.4375 0,2.6875 -0.34375,5.875 -0.65625,7.656249 -0.0625,0.3125 -0.0625,0.34375 -0.0625,0.46875 0,0.125 0,0.4375 0.1875,0.4375 0.3125,0 6.71875,-4.90625 10.09375,-10.031249 1.375,-2.0625 2.375,-4.4375 2.375,-6.21875 0,-2.25 -1.5,-3.09375 -2.5625,-3.09375 -0.78125,0 -1.15625,1.6875 -1.15625,2.03125 0,0.40625 0.125,0.40625 0.4375,0.4375 1.78125,0.187499 2.125,1.59375 2.125,2.25 0,2.15625 -4.625,7.59375 -9.1875,11.15625 z m 0,0"
       style="fill:#000000;fill-opacity:1;fill-rule:nonzero;stroke:none;stroke-width:2.66667"
       aria-label="V" />
    <path
       id="path16"
       d="m -29.973481,-11.443754 c 0,-4.175093 -3.384559,-7.559626 -7.559599,-7.559626 -4.175094,0 -7.5596,3.384533 -7.5596,7.559626 0,4.1750401 3.384506,7.5595734 7.5596,7.5595734 4.17504,0 7.559599,-3.3845333 7.559599,-7.5595734 z"
       style="fill:#000000;fill-opacity:1;fill-rule:nonzero;stroke:#000000;stroke-width:1.06267;stroke-linecap:butt;stroke-linejoin:miter;stroke-miterlimit:10;stroke-dasharray:none;stroke-opacity:1" />
    <path
       id="path17"
       d="m -29.973481,185.09448 c 0,-4.17504 -3.384559,-7.55957 -7.559599,-7.55957 -4.175094,0 -7.5596,3.38453 -7.5596,7.55957 0,4.17509 3.384506,7.55963 7.5596,7.55963 4.17504,0 7.559599,-3.38454 7.559599,-7.55963 z"
       style="fill:#000000;fill-opacity:1;fill-rule:nonzero;stroke:#000000;stroke-width:1.06267;stroke-linecap:butt;stroke-linejoin:miter;stroke-miterlimit:10;stroke-dasharray:none;stroke-opacity:1" />
    <path
       id="path18"
       d="m 423.57541,86.825364 c 0,-4.17504 -3.3845,-7.559573 -7.5596,-7.559573 -4.17503,0 -7.55959,3.384533 -7.55959,7.559573 0,4.17504 3.38456,7.559573 7.55959,7.559573 4.1751,0 7.5596,-3.384533 7.5596,-7.559573 z"
       style="fill:#000000;fill-opacity:1;fill-rule:nonzero;stroke:#000000;stroke-width:1.06267;stroke-linecap:butt;stroke-linejoin:miter;stroke-miterlimit:10;stroke-dasharray:none;stroke-opacity:1" />
    <path
       id="path19"
       d="m 521.84459,86.825364 c 0,-4.17504 -3.38456,-7.559573 -7.5596,-7.559573 -4.1751,0 -7.55963,3.384533 -7.55963,7.559573 0,4.17504 3.38453,7.559573 7.55963,7.559573 4.17504,0 7.5596,-3.384533 7.5596,-7.559573 z"
       style="fill:#000000;fill-opacity:1;fill-rule:nonzero;stroke:#000000;stroke-width:1.06267;stroke-linecap:butt;stroke-linejoin:miter;stroke-miterlimit:10;stroke-dasharray:none;stroke-opacity:1" />
  </g>
</svg>
